<?xml version="1.0" encoding="UTF-8" standalone="no"?>
<!-- Created with Inkscape (http://www.inkscape.org/) -->

<svg
   width="541.8667mm"
   height="541.8667mm"
   viewBox="0 0 2048.0001 2048.0001"
   version="1.1"
   id="svg1649"
   inkscape:version="1.1.2 (b8e25be833, 2022-02-05)"
   sodipodi:docname="replay0.svg"
   xmlns:inkscape="http://www.inkscape.org/namespaces/inkscape"
   xmlns:sodipodi="http://sodipodi.sourceforge.net/DTD/sodipodi-0.dtd"
   xmlns="http://www.w3.org/2000/svg"
   xmlns:svg="http://www.w3.org/2000/svg"
   xmlns:rdf="http://www.w3.org/1999/02/22-rdf-syntax-ns#"
   xmlns:cc="http://creativecommons.org/ns#"
   xmlns:dc="http://purl.org/dc/elements/1.1/">
  <defs
     id="defs1643" />
  <sodipodi:namedview
     id="base"
     pagecolor="#ffffff"
     bordercolor="#666666"
     borderopacity="1.0"
     inkscape:pageopacity="0.0"
     inkscape:pageshadow="2"
     inkscape:zoom="0.24121092"
     inkscape:cx="1133.8624"
     inkscape:cy="1247.8705"
     inkscape:document-units="px"
     inkscape:current-layer="layer1"
     inkscape:pagecheckerboard="0"
     showgrid="false"
     fit-margin-top="0"
     fit-margin-left="0"
     fit-margin-right="0"
     fit-margin-bottom="0"
     inkscape:window-width="1366"
     inkscape:window-height="745"
     inkscape:window-x="-8"
     inkscape:window-y="-8"
     inkscape:window-maximized="1" />
  <metadata
     id="metadata1646">
    <rdf:RDF>
      <cc:Work
         rdf:about="">
        <dc:format>image/svg+xml</dc:format>
        <dc:type
           rdf:resource="http://purl.org/dc/dcmitype/StillImage" />
      </cc:Work>
    </rdf:RDF>
  </metadata>
  <g
     inkscape:label="Layer 1"
     inkscape:groupmode="layer"
     id="layer1"
     transform="translate(527.36386,-569.96641)">
    <g
       aria-label="1"
       id="text2305"
       style="font-size:264.583px;line-height:1.25;stroke-width:0.264583"
       transform="matrix(3.7795276,0,0,3.7795276,-3766.4285,4597.8571)" />
    <path
       d="m 496.6364,569.96641 c 93.99988,0 184.66659,12.16668 271.99976,36.50003 87.33354,24.33336 168.83338,58.83326 244.49994,103.5001 75.6669,44.66646 144.6667,98.1668 207.0002,160.49991 62.3334,62.33348 115.8334,131.33325 160.4999,207.00015 44.6668,75.6666 79.1667,157.1664 103.5001,244.4999 24.3333,87.3332 36.5,177.9999 36.5,272.0001 0,94 -12.1667,184.6667 -36.5,272 -24.3334,87.3334 -58.8333,168.8334 -103.5001,244.5 -44.6665,75.6667 -98.1665,144.6667 -160.4999,207 -62.3335,62.3334 -131.3333,115.8334 -207.0002,160.5 -75.66656,44.6667 -157.1664,79.1667 -244.49994,103.5 -87.33317,24.3334 -177.99988,36.5 -271.99976,36.5 -76.00025,0 -150.50003,-8.3333 -223.50009,-25 -73.00007,-16.6666 -142.49991,-40.5 -208.499911,-71.5 -66.0000003,-31 -128.333481,-68.8333 -187.000439,-113.5 -58.66659,-44.6667 -111.66652,-94.8333 -158.99982,-150.5 -47.33329,-55.6667 -88.83326,-116.3333 -124.4999,-182 -35.66665,-65.6667 -63.50022,-135.1667 -83.49997,-208.5 l 122.99981,-34 c 26.66683,96.6667 67.83345,185.3333 123.50022,266 55.6664,80.6667 121.49972,150 197.499972,208 75.999875,58 160.333228,103 253.000068,135 92.66646,32 188.99981,48 289.00006,48 81.99988,0 161.16662,-10.6666 237.49985,-32 76.33323,-21.3333 147.66652,-51.5 213.99988,-90.5 66.33337,-39 126.83337,-85.8333 181.50007,-140.5 54.6667,-54.6667 101.5,-115.1667 140.5002,-181.5 38.9998,-66.3333 69.1665,-137.5 90.5,-213.5 21.3332,-76 31.9998,-155.3333 31.9998,-238 0,-82.0002 -10.6666,-161.1669 -31.9998,-237.5001 -21.3335,-76.3333 -51.5002,-147.6666 -90.5,-213.9999 -39.0002,-66.3334 -85.8335,-126.8334 -140.5002,-181.50012 C 1074.9695,906.29977 1014.4695,859.46651 948.13613,820.4667 881.80277,781.46651 810.46948,751.29983 734.13625,729.96667 657.80302,708.63312 578.63628,697.96654 496.6364,697.96654 c -86.00012,0 -169.50009,12.16668 -250.50028,36.50003 -80.99981,24.33336 -156.500035,58.66658 -226.49991,103.00007 -69.999875,44.3331 -133.16674,97.99974 -189.50022,160.99993 -56.33311,62.99983 -102.83301,133.50013 -139.49972,211.49973 h 294.000003 v 128.0001 H -527.36386 V 825.96667 h 128.00013 v 274.99993 c 44.66646,-81.3335 99.16649,-154.83325 163.49972,-220.4999 64.3336,-65.66703 135.16686,-121.5001 212.500156,-167.50035 C 53.969439,666.96648 136.6364,631.63318 224.63628,606.96648 312.63615,582.29977 403.30286,569.96641 496.6364,569.96641 Z"
       id="path894-5"
       style="stroke-width:0.999999"
       sodipodi:nodetypes="ssssssssssssssssssccssssssssssssssssssscccccccssss" />
  </g>
</svg>
