<?xml version="1.0" encoding="utf-8"?>
<!-- Generator: Adobe Illustrator 22.1.0, SVG Export Plug-In . SVG Version: 6.00 Build 0)  -->
<svg version="1.1"
	 id="Layer_1" xmlns:cc="http://creativecommons.org/ns#" xmlns:dc="http://purl.org/dc/elements/1.1/" xmlns:rdf="http://www.w3.org/1999/02/22-rdf-syntax-ns#"
	 xmlns="http://www.w3.org/2000/svg" xmlns:xlink="http://www.w3.org/1999/xlink" x="0px" y="0px" viewBox="0 0 1536 1536"
	 enable-background="new 0 0 1536 1536" xml:space="preserve">
<g transform="translate(527.36 -569.97)">
	<path fill="#7F7F7F" d="M240.6,570c70.5,0,138.5,9.1,204,27.4c65.5,18.2,126.6,44.1,183.4,77.6c56.8,33.5,108.5,73.6,155.3,120.4
		c46.8,46.8,86.9,98.5,120.4,155.3c33.5,56.8,59.4,117.9,77.6,183.4c18.2,65.5,27.4,133.5,27.4,204s-9.1,138.5-27.4,204
		c-18.2,65.5-44.1,126.6-77.6,183.4c-33.5,56.8-73.6,108.5-120.4,155.3c-46.8,46.8-98.5,86.9-155.3,120.4
		c-56.8,33.5-117.9,59.4-183.4,77.6c-65.5,18.3-133.5,27.4-204,27.4c-57,0-112.9-6.3-167.6-18.8c-54.8-12.5-106.9-30.4-156.4-53.6
		c-49.5-23.3-96.2-51.6-140.3-85.1c-44-33.5-83.8-71.1-119.3-112.9c-35.5-41.8-66.6-87.2-93.4-136.5
		c-26.8-49.3-47.6-101.4-62.6-156.4l92.3-25.5c20,72.5,50.9,139,92.6,199.5c41.7,60.5,91.1,112.5,148.1,156S-45.6,1950,23.9,1974
		c69.5,24,141.8,36,216.8,36c61.5,0,120.9-8,178.1-24c57.3-16,110.8-38.6,160.5-67.9c49.8-29.3,95.1-64.4,136.1-105.4
		c41-41,76.1-86.4,105.4-136.1c29.3-49.8,51.9-103.1,67.9-160.1c16-57,24-116.5,24-178.5c0-61.5-8-120.9-24-178.1
		c-16-57.3-38.6-110.8-67.9-160.5c-29.3-49.8-64.4-95.1-105.4-136.1c-41-41-86.4-76.1-136.1-105.4C529.5,728.6,476,706,418.8,690
		c-57.3-16-116.6-24-178.1-24c-64.5,0-127.1,9.1-187.9,27.4c-60.8,18.2-117.4,44-169.9,77.3c-52.5,33.3-99.9,73.5-142.1,120.8
		c-42.3,47.3-77.1,100.1-104.6,158.6h220.5v96h-384V762h96v206.3c33.5-61,74.4-116.1,122.6-165.4c48.3-49.3,101.4-91.1,159.4-125.6
		c58-34.5,120-61,186-79.5S170.6,570,240.6,570z"/>
	<g transform="matrix(3.7795 0 0 3.7795 -8674.5 5350.3)">
		<path fill="#7F7F7F" d="M2401.2-1069.9c3.1,2.8,5.7,6.3,7.7,10.5c2,4.2,3,9.6,3,16.3c0,6.6-1.2,12.6-3.6,18.1
			c-2.4,5.5-5.7,10.3-10.1,14.3c-4.8,4.5-10.6,7.9-17.2,10.1c-6.5,2.1-13.7,3.2-21.5,3.2c-8,0-15.9-1-23.6-2.9
			c-7.8-1.9-14.1-3.9-19.1-6.2v-20.3h1.5c5.5,3.6,12,6.6,19.4,9c7.4,2.4,14.6,3.6,21.5,3.6c4.1,0,8.4-0.7,13-2s8.3-3.4,11.1-6
			c3-2.8,5.2-6,6.6-9.4c1.5-3.4,2.2-7.8,2.2-13c0-5.2-0.8-9.4-2.5-12.8c-1.6-3.4-3.9-6.1-6.8-8c-2.9-2-6.4-3.4-10.6-4.1
			c-4.1-0.8-8.6-1.2-13.4-1.2h-8.7v-16.1h6.8c9.8,0,17.6-2,23.4-6.1c5.9-4.1,8.8-10.1,8.8-18c0-3.5-0.7-6.5-2.2-9.1
			c-1.5-2.6-3.6-4.8-6.2-6.5c-2.8-1.7-5.7-2.8-8.9-3.5c-3.2-0.6-6.8-1-10.8-1c-6.1,0-12.7,1.1-19.6,3.3c-6.9,2.2-13.4,5.3-19.6,9.3
			h-1v-20.3c4.6-2.3,10.7-4.3,18.3-6.2c7.7-1.9,15.1-2.9,22.3-2.9c7,0,13.2,0.6,18.6,1.9c5.4,1.3,10.2,3.4,14.5,6.2
			c4.7,3.1,8.2,6.8,10.6,11.2s3.6,9.5,3.6,15.4c0,8-2.8,15-8.5,21c-5.6,5.9-12.3,9.7-20,11.2v1.4c3.1,0.5,6.7,1.6,10.7,3.3
			C2395-1074.4,2398.4-1072.4,2401.2-1069.9L2401.2-1069.9z"/>
	</g>
</g>
</svg>
