<?xml version="1.0" encoding="UTF-8" standalone="no"?>
<svg
   viewBox="0 0 2048 2048"
   version="1.1"
   id="svg849"
   sodipodi:docname="Settings.svg"
   inkscape:version="1.1.2 (b8e25be833, 2022-02-05)"
   xmlns:inkscape="http://www.inkscape.org/namespaces/inkscape"
   xmlns:sodipodi="http://sodipodi.sourceforge.net/DTD/sodipodi-0.dtd"
   xmlns="http://www.w3.org/2000/svg"
   xmlns:svg="http://www.w3.org/2000/svg">
  <defs
     id="defs853" />
  <sodipodi:namedview
     id="namedview851"
     pagecolor="#ffffff"
     bordercolor="#666666"
     borderopacity="1.0"
     inkscape:pageshadow="2"
     inkscape:pageopacity="0.0"
     inkscape:pagecheckerboard="true"
     showgrid="false"
     inkscape:zoom="0.24121094"
     inkscape:cx="1021.9271"
     inkscape:cy="1024"
     inkscape:window-width="1366"
     inkscape:window-height="745"
     inkscape:window-x="-8"
     inkscape:window-y="-8"
     inkscape:window-maximized="1"
     inkscape:current-layer="svg849" />
  <path
     d="m 1644.3222,994.5776 q 0,7.3556 0.4086,14.7112 0.4087,7.3556 0.4087,14.7112 0,7.3556 -0.4087,14.7112 -0.4086,7.3556 -0.4086,14.7112 L 1856,1185.0059 l -129.9489,313.0216 -242.7348,-55.5756 q -19.6149,21.2495 -40.8644,40.8644 l 55.5756,242.7348 L 1185.0059,1856 1053.4224,1644.3222 q -7.3556,0 -14.7112,0.4086 -7.3556,0.4087 -14.7112,0.4087 -7.3556,0 -14.7112,-0.4087 -7.3556,-0.4086 -14.7112,-0.4086 L 862.99411,1856 549.9725,1726.0511 605.54813,1483.3163 q -21.24951,-19.6149 -40.86444,-40.8644 L 321.94892,1498.0275 192,1185.0059 403.6778,1053.4224 q 0,-7.3556 -0.40864,-14.7112 -0.40865,-7.3556 -0.40865,-14.7112 0,-7.3556 0.40865,-14.7112 0.40864,-7.3556 0.40864,-14.7112 L 192,862.99411 321.94892,549.9725 564.68369,605.54813 q 19.61493,-21.24951 40.86444,-40.86444 L 549.9725,321.94892 862.99411,192 994.5776,403.6778 q 7.3556,0 14.7112,-0.40864 7.3556,-0.40865 14.7112,-0.40865 7.3556,0 14.7112,0.40865 7.3556,0.40864 14.7112,0.40864 L 1185.0059,192 l 313.0216,129.94892 -55.5756,242.73477 q 21.2495,19.61493 40.8644,40.86444 L 1726.0511,549.9725 1856,862.99411 Z m -95.6228,106.2476 q 1.6346,-19.615 3.2692,-38.8213 1.6345,-19.2063 1.6345,-38.8212 0,-18.7976 -1.6345,-38.41256 -1.6346,-19.61493 -3.2692,-38.41258 l 192.8802,-120.14145 -70.2869,-169.99607 -221.4852,51.48919 q -25.336,-31.05697 -51.8979,-57.21021 -26.5619,-26.15324 -57.6188,-52.30649 L 1391.78,376.70727 1221.7839,306.42043 1100.8252,499.30059 q -18.7977,-1.63458 -38.4126,-3.26916 -19.615,-1.63457 -38.4126,-1.63457 -19.6149,0 -38.82122,1.63457 -19.20628,1.63458 -38.82122,3.26916 L 826.21611,306.42043 656.22004,376.70727 707.70923,598.19253 q -31.05697,25.33596 -57.21021,51.89784 -26.15324,26.56189 -52.30649,57.61886 L 376.70727,656.22004 306.42043,826.21611 499.30059,947.17485 q -1.63458,19.61493 -3.26916,38.82122 -1.63457,19.20633 -1.63457,38.82123 0,18.7976 1.63457,38.4126 1.63458,19.6149 3.26916,38.4125 l -192.88016,120.1415 70.28684,169.9961 221.48526,-51.4892 q 25.33596,31.0569 51.89784,57.2102 26.56189,26.1532 57.61886,52.3065 l -51.48919,221.4852 169.99607,70.2869 120.95874,-192.8802 q 18.79765,1.6346 38.41258,3.2692 19.61497,1.6345 38.41257,1.6345 19.6149,0 38.8212,-1.6345 19.2063,-1.6346 38.8212,-3.2692 l 120.1415,192.8802 169.9961,-70.2869 -51.4892,-221.4852 q 31.0569,-25.336 57.2102,-51.8979 26.1532,-26.5619 52.3065,-57.6188 l 221.4852,51.4892 70.2869,-169.9961 z M 1024,716.69941 q 63.7485,0 119.7328,24.11002 55.9843,24.11002 97.666,65.79175 41.6818,41.68173 65.7918,97.66601 24.11,55.98428 24.11,119.73281 0,63.7485 -24.11,119.7328 -24.11,55.9843 -65.7918,97.666 -41.6817,41.6818 -97.666,65.7918 -55.9843,24.11 -119.7328,24.11 -63.74853,0 -119.73281,-24.11 -55.98428,-24.11 -97.66601,-65.7918 -41.68173,-41.6817 -65.79175,-97.666 -24.11002,-55.9843 -24.11002,-119.7328 0,-63.74853 24.11002,-119.73281 24.11002,-55.98428 65.79175,-97.66601 41.68173,-41.68173 97.66601,-65.79175 Q 960.25147,716.69941 1024,716.69941 Z m 0,523.06479 q 44.9509,0 84.1808,-16.7544 39.2298,-16.7544 68.6522,-46.1768 29.4224,-29.4224 46.1768,-68.6522 16.7544,-39.2299 16.7544,-84.1808 0,-44.95088 -16.7544,-84.18075 -16.7544,-39.22986 -46.1768,-68.65226 -29.4224,-29.42239 -68.6522,-46.17681 -39.2299,-16.75442 -84.1808,-16.75442 -44.95088,0 -84.18075,16.75442 -39.22986,16.75442 -68.65226,46.17681 -29.42239,29.4224 -46.17681,68.65226 -16.75442,39.22987 -16.75442,84.18075 0,44.9509 16.75442,84.1808 16.75442,39.2298 46.17681,68.6522 29.4224,29.4224 68.65226,46.1768 39.22987,16.7544 84.18075,16.7544 z"
     id="path847"
     style="stroke-width:0.817289" />
</svg>
