<?xml version="1.0" encoding="UTF-8"?>
<!-- Created with Inkscape (http://www.inkscape.org/) -->
<svg width="541.87mm" height="541.87mm" version="1.1" viewBox="0 0 2048 2048" xmlns="http://www.w3.org/2000/svg" xmlns:cc="http://creativecommons.org/ns#" xmlns:dc="http://purl.org/dc/elements/1.1/" xmlns:rdf="http://www.w3.org/1999/02/22-rdf-syntax-ns#">
 <metadata>
  <rdf:RDF>
   <cc:Work rdf:about="">
    <dc:format>image/svg+xml</dc:format>
    <dc:type rdf:resource="http://purl.org/dc/dcmitype/StillImage"/>
   </cc:Work>
  </rdf:RDF>
 </metadata>
 <g transform="translate(527.36 -569.97)">
  <path d="m496.64 569.97c94 0 184.67 12.167 272 36.5 87.334 24.333 168.83 58.833 244.5 103.5 75.667 44.666 144.67 98.167 207 160.5 62.333 62.333 115.83 131.33 160.5 207 44.667 75.667 79.167 157.17 103.5 244.5 24.333 87.333 36.5 178 36.5 272 0 94-12.167 184.67-36.5 272-24.333 87.333-58.833 168.83-103.5 244.5-44.666 75.667-98.166 144.67-160.5 207-62.334 62.333-131.33 115.83-207 160.5-75.667 44.667-157.17 79.167-244.5 103.5-87.333 24.333-178 36.5-272 36.5-76 0-150.5-8.3333-223.5-25-73-16.667-142.5-40.5-208.5-71.5-66-31-128.33-68.833-187-113.5-58.667-44.667-111.67-94.833-159-150.5-47.333-55.667-88.833-116.33-124.5-182-35.667-65.667-63.5-135.17-83.5-208.5l123-34c26.667 96.667 67.833 185.33 123.5 266 55.666 80.667 121.5 150 197.5 208 76 58 160.33 103 253 135 92.666 32 189 48 289 48 82 0 161.17-10.667 237.5-32 76.333-21.333 147.67-51.5 214-90.5 66.333-39 126.83-85.833 181.5-140.5s101.5-115.17 140.5-181.5c39-66.333 69.166-137.5 90.5-213.5 21.333-76 32-155.33 32-238 0-82-10.667-161.17-32-237.5-21.334-76.333-51.5-147.67-90.5-214-39-66.333-85.834-126.83-140.5-181.5-54.667-54.667-115.17-101.5-181.5-140.5-66.333-39-137.67-69.167-214-90.5-76.333-21.334-155.5-32-237.5-32-86 0-169.5 12.167-250.5 36.5-81 24.333-156.5 58.667-226.5 103-70 44.333-133.17 98-189.5 161-56.333 63-102.83 133.5-139.5 211.5h294v128h-512v-512h128v275c44.666-81.334 99.166-154.83 163.5-220.5 64.334-65.667 135.17-121.5 212.5-167.5 77.333-46 160-81.333 248-106 88-24.667 178.67-37 272-37z"/>
  <g transform="matrix(3.7795 0 0 3.7795 -8674.5 5350.3)" stroke-width=".26458" aria-label="3">
   <path d="m2483-1005q6.2012 5.5552 10.206 13.953t4.0049 21.704q0 13.177-4.7801 24.159-4.78 10.981-13.436 19.12-9.6893 9.0434-22.867 13.436-13.048 4.2633-28.68 4.2633-16.02 0-31.523-3.8757-15.503-3.7465-25.451-8.2682v-27.001h1.9379q10.981 7.2347 25.838 12.015 14.857 4.7801 28.68 4.7801 8.139 0 17.312-2.713 9.1726-2.713 14.857-8.0098 5.9428-5.6844 8.785-12.532 2.9714-6.8471 2.9714-17.312 0-10.335-3.359-17.053-3.2298-6.8471-9.0434-10.723-5.8136-4.0049-14.082-5.426-8.2682-1.5503-17.828-1.5503h-11.627v-21.446h9.0434q19.637 0 31.264-8.139 11.756-8.2682 11.756-24.03 0-6.9763-2.9714-12.144-2.9713-5.2969-8.2682-8.6558-5.5552-3.359-11.886-4.6509-6.3304-1.2919-14.34-1.2919-12.273 0-26.097 4.3925t-26.097 12.402h-1.2919v-27.001q9.1726-4.5217 24.417-8.2682 15.374-3.8758 29.714-3.8758 14.082 0 24.805 2.5839 10.723 2.5838 19.379 8.2682 9.3018 6.2012 14.082 14.986 4.7801 8.785 4.7801 20.541 0 16.02-11.369 28.034-11.24 11.886-26.613 14.986v1.8086q6.2011 1.0336 14.211 4.3925 8.0098 3.2298 13.565 8.1391z"/>
  </g>
 </g>
</svg>
