<?xml version="1.0" encoding="UTF-8"?>
<!-- Created with Inkscape (http://www.inkscape.org/) -->
<svg width="541.87mm" height="541.87mm" version="1.1" viewBox="0 0 2048 2048" xmlns="http://www.w3.org/2000/svg" xmlns:cc="http://creativecommons.org/ns#" xmlns:dc="http://purl.org/dc/elements/1.1/" xmlns:rdf="http://www.w3.org/1999/02/22-rdf-syntax-ns#">
 <metadata>
  <rdf:RDF>
   <cc:Work rdf:about="">
    <dc:format>image/svg+xml</dc:format>
    <dc:type rdf:resource="http://purl.org/dc/dcmitype/StillImage"/>
   </cc:Work>
  </rdf:RDF>
 </metadata>
 <g transform="translate(349.1 -138.81)">
  <path d="m674.9 138.81c94 0 184.67 12.167 272 36.5 87.334 24.333 168.83 58.833 244.5 103.5 75.667 44.666 144.67 98.167 207 160.5 62.334 62.333 115.83 131.33 160.5 207 44.667 75.667 79.167 157.17 103.5 244.5 24.333 87.333 36.5 178 36.5 272 0 94-12.167 184.67-36.5 272-24.333 87.333-58.833 168.83-103.5 244.5-44.666 75.667-98.166 144.67-160.5 207-62.333 62.333-131.33 115.83-207 160.5-75.666 44.667-157.17 79.167-244.5 103.5-87.333 24.333-178 36.5-272 36.5-76 0-150.5-8.3333-223.5-25-73-16.667-142.5-40.5-208.5-71.5s-128.33-68.833-187-113.5c-58.667-44.667-111.67-94.833-159-150.5-47.334-55.667-88.834-116.33-124.5-182-35.667-65.667-63.5-135.17-83.5-208.5l123-34c26.666 96.667 67.833 185.33 123.5 266 55.667 80.667 121.5 150 197.5 208 76 58 160.33 103 253 135 92.666 32 189 48 289 48 82 0 161.17-10.667 237.5-32s147.67-51.5 214-90.5 126.83-85.833 181.5-140.5c54.667-54.667 101.5-115.17 140.5-181.5 39-66.333 69.166-137.5 90.5-213.5 21.333-76 32-155.33 32-238 0-82-10.666-161.17-32-237.5-21.334-76.333-51.5-147.67-90.5-214-39-66.333-85.834-126.83-140.5-181.5s-115.17-101.5-181.5-140.5c-66.333-39-137.67-69.167-214-90.5-76.333-21.334-155.5-32-237.5-32-86 0-169.5 12.167-250.5 36.5-81 24.333-156.5 58.667-226.5 103-70 44.333-133.17 98-189.5 161-56.333 63-102.83 133.5-139.5 211.5h294v128h-512v-512h128v275c44.667-81.334 99.167-154.83 163.5-220.5 64.333-65.667 135.17-121.5 212.5-167.5 77.333-46 160-81.333 248-106 88-24.667 178.67-37 272-37z"/>
  <g transform="matrix(3.7795 0 0 3.7795 -6146.6 4965)" stroke-width=".26458" aria-label="2">
   <path d="m1878.3-924.53h-130.22v-27.001q13.565-11.627 27.13-23.254 13.694-11.627 25.451-23.125 24.805-24.03 33.977-38.111 9.1725-14.211 9.1725-30.618 0-14.986-9.9477-23.384-9.8185-8.5266-27.518-8.5266-11.756 0-25.451 4.1341-13.694 4.1341-26.742 12.661h-1.2919v-27.13q9.1726-4.5216 24.417-8.2682 15.374-3.7465 29.714-3.7465 29.585 0 46.38 14.34 16.795 14.211 16.795 38.628 0 10.981-2.8422 20.541-2.713 9.4309-8.1391 17.958-5.0384 8.0099-11.886 15.761-6.7179 7.7515-16.407 17.182-13.823 13.565-28.551 26.355-14.728 12.661-27.518 23.513h103.48z"/>
  </g>
 </g>
</svg>
