<?xml version="1.0" encoding="UTF-8" standalone="no"?>
<!-- Created with Inkscape (http://www.inkscape.org/) -->

<svg
   width="541.8667mm"
   height="541.8667mm"
   viewBox="0 0 2048.0001 2048.0001"
   version="1.1"
   id="svg1649"
   inkscape:version="1.1.2 (b8e25be833, 2022-02-05)"
   sodipodi:docname="replay1.svg"
   xmlns:inkscape="http://www.inkscape.org/namespaces/inkscape"
   xmlns:sodipodi="http://sodipodi.sourceforge.net/DTD/sodipodi-0.dtd"
   xmlns="http://www.w3.org/2000/svg"
   xmlns:svg="http://www.w3.org/2000/svg"
   xmlns:rdf="http://www.w3.org/1999/02/22-rdf-syntax-ns#"
   xmlns:cc="http://creativecommons.org/ns#"
   xmlns:dc="http://purl.org/dc/elements/1.1/">
  <defs
     id="defs1643" />
  <sodipodi:namedview
     id="base"
     pagecolor="#ffffff"
     bordercolor="#666666"
     borderopacity="1.0"
     inkscape:pageopacity="0.0"
     inkscape:pageshadow="2"
     inkscape:zoom="0.24121092"
     inkscape:cx="1021.9272"
     inkscape:cy="1024.0001"
     inkscape:document-units="px"
     inkscape:current-layer="layer1"
     inkscape:pagecheckerboard="0"
     showgrid="false"
     fit-margin-top="0"
     fit-margin-left="0"
     fit-margin-right="0"
     fit-margin-bottom="0"
     inkscape:window-width="1366"
     inkscape:window-height="745"
     inkscape:window-x="-8"
     inkscape:window-y="-8"
     inkscape:window-maximized="1" />
  <metadata
     id="metadata1646">
    <rdf:RDF>
      <cc:Work
         rdf:about="">
        <dc:format>image/svg+xml</dc:format>
        <dc:type
           rdf:resource="http://purl.org/dc/dcmitype/StillImage" />
      </cc:Work>
    </rdf:RDF>
  </metadata>
  <g
     inkscape:label="Layer 1"
     inkscape:groupmode="layer"
     id="layer1"
     transform="translate(415.42858,201.14289)">
    <path
       d="m 608.57161,-201.14289 c 93.99988,0 184.66659,12.16668 271.99975,36.50003 87.33355,24.33336 168.83334,58.83326 244.49994,103.500099 75.6669,44.666457 144.6667,98.166804 207.0002,160.499907 62.3334,62.333484 115.8334,131.333294 160.4999,207.000194 44.6668,75.66652 79.1667,157.16636 103.5001,244.49991 24.3333,87.33316 36.5,177.99987 36.5,271.99994 0,93.99998 -12.1667,184.66661 -36.5,272.00001 -24.3334,87.3334 -58.8333,168.8334 -103.5001,244.5 -44.6665,75.6667 -98.1665,144.6667 -160.4999,207 -62.3335,62.3334 -131.3333,115.8334 -207.0002,160.5 -75.6666,44.6667 -157.16639,79.1667 -244.49994,103.5 -87.33316,24.3333 -177.99987,36.5 -271.99975,36.5 -76.00025,0 -150.50003,-8.3333 -223.5001,-25 -73.00006,-16.6667 -142.4999,-40.5 -208.4999,-71.5 -66.00001,-31 -128.333486,-68.8333 -187.000183,-113.5 -58.666659,-44.6667 -111.666637,-94.8334 -158.999967,-150.5 -47.33333,-55.6667 -88.83333,-116.3333 -124.49998,-182 -35.66668,-65.6667 -63.50003,-135.1667 -83.50004,-208.5 l 123,-34 c 26.66668,96.6667 67.83333,185.3333 123.50003,266 55.666659,80.6667 121.4999825,150 197.500009,208 75.999871,58 160.333231,103 253.000061,135 92.66646,32 188.99982,48 289.00007,48 81.99988,0 161.16662,-10.6667 237.49985,-32 76.33322,-21.3333 147.66652,-51.5 213.99984,-90.5 66.3334,-39 126.8334,-85.8333 181.5001,-140.5 54.6667,-54.6667 101.5,-115.1667 140.5002,-181.5 38.9998,-66.3333 69.1665,-137.5 90.5,-213.5 21.3332,-75.99998 31.9998,-155.33332 31.9998,-238.00001 0,-82.00007 -10.6666,-161.16681 -31.9998,-237.50004 -21.3335,-76.33323 -51.5002,-147.66652 -90.5,-213.99988 C 1343.0714,305.02392 1296.2381,244.52389 1241.5714,189.85718 1186.9047,135.19047 1126.4047,88.357209 1060.0713,49.357397 993.73798,10.357208 922.40468,-19.80947 846.07146,-41.142635 769.73823,-62.476179 690.57149,-73.142762 608.57161,-73.142762 c -86.00013,0 -169.5001,12.166678 -250.50029,36.500032 -80.99981,24.333355 -156.50003,58.666584 -226.4999,103.000064 -69.999879,44.333106 -133.1666698,97.999746 -189.5,160.999936 -56.33329,62.99981 -102.83331,133.5001 -139.49994,211.49972 H 96.571479 V 566.85712 H -415.42858 V 54.857366 h 128.00005 V 329.85731 c 44.66665,-81.33355 99.16665,-154.83327 163.49999,-220.49991 64.333302,-65.667027 135.166638,-121.500098 212.499893,-167.50035 77.333287,-45.99987 160.000257,-81.33317 248.000127,-105.99988 87.99988,-24.6667 178.66659,-37.00006 272.00013,-37.00006 z"
       id="path894"
       style="stroke-width:0.999999"
       sodipodi:nodetypes="ssssssssssssssssssccssssssssssssssssssscccccccssss" />
    <g
       aria-label="1"
       id="text2305"
       style="font-size:264.583px;line-height:1.25;stroke-width:0.264583"
       transform="matrix(3.7795276,0,0,3.7795276,-3766.4285,4597.8571)">
      <path
         d="M 1219.9819,-917.34509 H 1115.854 v -19.63702 h 40.0492 v -128.93259 h -40.0492 v -17.5699 q 8.1391,0 17.4408,-1.2919 9.3018,-1.4211 14.0818,-4.0049 5.9428,-3.2298 9.3018,-8.1391 3.4881,-5.0384 4.0049,-13.4358 h 20.0246 v 173.37419 h 39.274 z"
         id="path837" />
    </g>
  </g>
</svg>
