<?xml version="1.0" encoding="utf-8"?>
<!-- Generator: Adobe Illustrator 22.1.0, SVG Export Plug-In . SVG Version: 6.00 Build 0)  -->
<svg version="1.1" id="Layer_1" xmlns="http://www.w3.org/2000/svg" xmlns:xlink="http://www.w3.org/1999/xlink" x="0px" y="0px"
	 viewBox="0 0 1984 2048" style="enable-background:new 0 0 1984 2048;" xml:space="preserve">
<style type="text/css">
	.st0{fill:#FFFFFF;}
</style>
<g id="Layer_1_1_">
	<path class="st0" d="M663.6,1589.6c0,8-9.2,14.4-20.8,14.4c-13.2,1.2-22.4-5.2-22.4-14.4c0-8,9.2-14.4,20.8-14.4
		C653.2,1574,663.6,1580.4,663.6,1589.6z M539.2,1571.6c-2.8,8,5.2,17.2,17.2,19.6c10.4,4,22.4,0,24.8-8s-5.2-17.2-17.2-20.8
		C553.6,1559.6,542,1563.6,539.2,1571.6L539.2,1571.6z M716,1564.8c-11.6,2.8-19.6,10.4-18.4,19.6c1.2,8,11.6,13.2,23.6,10.4
		c11.6-2.8,19.6-10.4,18.4-18.4C738.4,1568.8,727.6,1563.6,716,1564.8z M979.2,32C424.4,32,0,453.2,0,1008
		c0,443.6,279.2,823.2,678,956.8c51.2,9.2,69.2-22.4,69.2-48.4c0-24.8-1.2-161.6-1.2-245.6c0,0-280,60-338.8-119.2
		c0,0-45.6-116.4-111.2-146.4c0,0-91.6-62.8,6.4-61.6c0,0,99.6,8,154.4,103.2c87.6,154.4,234.4,110,291.6,83.6
		c9.2-64,35.2-108.4,64-134.8c-223.6-24.8-449.2-57.2-449.2-442c0-110,30.4-165.2,94.4-235.6c-10.4-26-44.4-133.2,10.4-271.6
		c83.6-26,276,108,276,108c80-22.4,166-34,251.2-34s171.2,11.6,251.2,34c0,0,192.4-134.4,276-108c54.8,138.8,20.8,245.6,10.4,271.6
		c64,70.8,103.2,126,103.2,235.6c0,386-235.6,416.8-459.2,442c36.8,31.6,68,91.6,68,185.6c0,134.8-1.2,301.6-1.2,334.4
		c0,26,18.4,57.6,69.2,48.4c400-132.8,671.2-512.4,671.2-956C1984,453.2,1534,32,979.2,32z M388.8,1411.6c-5.2,4-4,13.2,2.8,20.8
		c6.4,6.4,15.6,9.2,20.8,4c5.2-4,4-13.2-2.8-20.8C403.2,1409.2,394,1406.4,388.8,1411.6z M345.6,1379.2c-2.8,5.2,1.2,11.6,9.2,15.6
		c6.4,4,14.4,2.8,17.2-2.8c2.8-5.2-1.2-11.6-9.2-15.6C354.8,1374,348.4,1375.2,345.6,1379.2z M475.2,1521.6
		c-6.4,5.2-4,17.2,5.2,24.8c9.2,9.2,20.8,10.4,26,4c5.2-5.2,2.8-17.2-5.2-24.8C492.4,1516.4,480.4,1515.2,475.2,1521.6z
		 M429.6,1462.8c-6.4,4-6.4,14.4,0,23.6s17.2,13.2,22.4,9.2c6.4-5.2,6.4-15.6,0-24.8C446.4,1461.6,436,1457.6,429.6,1462.8
		L429.6,1462.8z"/>
</g>
</svg>
