<?xml version="1.0" encoding="utf-8"?>
<!-- Generator: Adobe Illustrator 22.1.0, SVG Export Plug-In . SVG Version: 6.00 Build 0)  -->
<svg version="1.1"
	 id="svg1649" inkscape:version="1.1.2 (b8e25be833, 2022-02-05)" sodipodi:docname="replay1.svg" xmlns:cc="http://creativecommons.org/ns#" xmlns:dc="http://purl.org/dc/elements/1.1/" xmlns:inkscape="http://www.inkscape.org/namespaces/inkscape" xmlns:rdf="http://www.w3.org/1999/02/22-rdf-syntax-ns#" xmlns:sodipodi="http://sodipodi.sourceforge.net/DTD/sodipodi-0.dtd" xmlns:svg="http://www.w3.org/2000/svg"
	 xmlns="http://www.w3.org/2000/svg" xmlns:xlink="http://www.w3.org/1999/xlink" x="0px" y="0px" viewBox="0 0 1536 1536"
	 enable-background="new 0 0 1536 1536" xml:space="preserve">
<sodipodi:namedview  bordercolor="#666666" borderopacity="1.0" fit-margin-bottom="0" fit-margin-left="0" fit-margin-right="0" fit-margin-top="0" id="base" inkscape:current-layer="layer1" inkscape:cx="1021.9272" inkscape:cy="1024.0001" inkscape:document-units="px" inkscape:pagecheckerboard="0" inkscape:pageopacity="0.0" inkscape:pageshadow="2" inkscape:window-height="745" inkscape:window-maximized="1" inkscape:window-width="1366" inkscape:window-x="-8" inkscape:window-y="-8" inkscape:zoom="0.24121092" pagecolor="#ffffff" showgrid="false">
	</sodipodi:namedview>
<g id="layer1" transform="translate(415.42858,201.14289)" inkscape:groupmode="layer" inkscape:label="Layer 1">
	<path id="path894" sodipodi:nodetypes="ssssssssssssssssssccssssssssssssssssssscccccccssss" fill="#FFFFFF" d="M352.6-201.1
		c70.5,0,138.5,9.1,204,27.4c65.5,18.3,126.6,44.1,183.4,77.6c56.8,33.5,108.5,73.6,155.3,120.4c46.8,46.8,86.9,98.5,120.4,155.3
		c33.5,56.7,59.4,117.9,77.6,183.4c18.2,65.5,27.4,133.5,27.4,204c0,70.5-9.1,138.5-27.4,204c-18.3,65.5-44.1,126.6-77.6,183.4
		c-33.5,56.8-73.6,108.5-120.4,155.3c-46.8,46.8-98.5,86.9-155.3,120.4c-56.8,33.5-117.9,59.4-183.4,77.6
		c-65.5,18.2-133.5,27.4-204,27.4c-57,0-112.9-6.3-167.6-18.8c-54.8-12.5-106.9-30.4-156.4-53.6s-96.3-51.6-140.3-85.1
		c-44-33.5-83.7-71.1-119.2-112.9c-35.5-41.8-66.6-87.3-93.4-136.5c-26.8-49.3-47.6-101.4-62.6-156.4l92.3-25.5
		c20,72.5,50.9,139,92.6,199.5c41.7,60.5,91.1,112.5,148.1,156c57,43.5,120.2,77.3,189.8,101.3c69.5,24,141.7,36,216.8,36
		c61.5,0,120.9-8,178.1-24c57.2-16,110.7-38.6,160.5-67.9s95.1-64.4,136.1-105.4c41-41,76.1-86.4,105.4-136.1
		c29.2-49.7,51.9-103.1,67.9-160.1c16-57,24-116.5,24-178.5c0-61.5-8-120.9-24-178.1c-16-57.2-38.6-110.7-67.9-160.5
		c-29.3-49.7-64.4-95.1-105.4-136.1S740.9,16,691.2-13.3c-49.8-29.3-103.3-51.9-160.5-67.9c-57.2-16-116.6-24-178.1-24
		c-64.5,0-127.1,9.1-187.9,27.4C103.9-59.5,47.3-33.8-5.2-0.5C-57.7,32.7-105.1,73-147.3,120.2c-42.2,47.2-77.1,100.1-104.6,158.6
		h220.5v96h-384v-384h96v206.2c33.5-61,74.4-116.1,122.6-165.4C-148.6-17.5-95.4-59.4-37.4-93.9c58-34.5,120-61,186-79.5
		S282.6-201.1,352.6-201.1L352.6-201.1z"/>
	<g id="text2305" transform="matrix(3.7795276,0,0,3.7795276,-3766.4285,4597.8571)">
		<path id="path837" fill="#FFFFFF" d="M1136.6-1005.4h-78.1v-14.7h30v-96.7h-30v-13.2c4.1,0,8.4-0.3,13.1-1c4.7-0.7,8.2-1.7,10.6-3
			c3-1.6,5.3-3.6,7-6.1c1.7-2.5,2.7-5.9,3-10.1h15v130h29.5V-1005.4z"/>
	</g>
</g>
</svg>
