<?xml version="1.0" encoding="utf-8"?>
<!-- Generator: Adobe Illustrator 22.1.0, SVG Export Plug-In . SVG Version: 6.00 Build 0)  -->
<svg version="1.1"
	 id="svg1649" inkscape:version="1.1.2 (b8e25be833, 2022-02-05)" sodipodi:docname="replay0.svg" xmlns:cc="http://creativecommons.org/ns#" xmlns:dc="http://purl.org/dc/elements/1.1/" xmlns:inkscape="http://www.inkscape.org/namespaces/inkscape" xmlns:rdf="http://www.w3.org/1999/02/22-rdf-syntax-ns#" xmlns:sodipodi="http://sodipodi.sourceforge.net/DTD/sodipodi-0.dtd" xmlns:svg="http://www.w3.org/2000/svg"
	 xmlns="http://www.w3.org/2000/svg" xmlns:xlink="http://www.w3.org/1999/xlink" x="0px" y="0px" viewBox="0 0 1536 1536"
	 enable-background="new 0 0 1536 1536" xml:space="preserve">
<sodipodi:namedview  bordercolor="#666666" borderopacity="1.0" fit-margin-bottom="0" fit-margin-left="0" fit-margin-right="0" fit-margin-top="0" id="base" inkscape:current-layer="layer1" inkscape:cx="1133.8624" inkscape:cy="1247.8705" inkscape:document-units="px" inkscape:pagecheckerboard="0" inkscape:pageopacity="0.0" inkscape:pageshadow="2" inkscape:window-height="745" inkscape:window-maximized="1" inkscape:window-width="1366" inkscape:window-x="-8" inkscape:window-y="-8" inkscape:zoom="0.24121092" pagecolor="#ffffff" showgrid="false">
	</sodipodi:namedview>
<g id="layer1" transform="translate(527.36386,-569.96641)" inkscape:groupmode="layer" inkscape:label="Layer 1">
	<g id="text2305" transform="matrix(3.7795276,0,0,3.7795276,-3766.4285,4597.8571)">
	</g>
	<path id="path894-5" sodipodi:nodetypes="ssssssssssssssssssccssssssssssssssssssscccccccssss" fill="#FFFFFF" d="M240.6,570
		c70.5,0,138.5,9.1,204,27.4c65.5,18.3,126.6,44.1,183.4,77.6c56.8,33.5,108.5,73.6,155.3,120.4c46.8,46.8,86.9,98.5,120.4,155.3
		c33.5,56.8,59.4,117.9,77.6,183.4c18.2,65.5,27.4,133.5,27.4,204c0,70.5-9.1,138.5-27.4,204c-18.3,65.5-44.1,126.6-77.6,183.4
		c-33.5,56.8-73.6,108.5-120.4,155.3c-46.8,46.8-98.5,86.9-155.3,120.4c-56.7,33.5-117.9,59.4-183.4,77.6
		c-65.5,18.3-133.5,27.4-204,27.4c-57,0-112.9-6.2-167.6-18.8c-54.8-12.5-106.9-30.4-156.4-53.6c-49.5-23.3-96.3-51.6-140.3-85.1
		c-44-33.5-83.7-71.1-119.2-112.9c-35.5-41.8-66.6-87.3-93.4-136.5c-26.8-49.3-47.6-101.4-62.6-156.4l92.2-25.5
		c20,72.5,50.9,139,92.6,199.5c41.7,60.5,91.1,112.5,148.1,156c57,43.5,120.2,77.3,189.8,101.3c69.5,24,141.7,36,216.8,36
		c61.5,0,120.9-8,178.1-24c57.2-16,110.7-38.6,160.5-67.9c49.8-29.3,95.1-64.4,136.1-105.4c41-41,76.1-86.4,105.4-136.1
		c29.2-49.7,51.9-103.1,67.9-160.1c16-57,24-116.5,24-178.5c0-61.5-8-120.9-24-178.1c-16-57.2-38.6-110.7-67.9-160.5
		c-29.3-49.8-64.4-95.1-105.4-136.1c-41-41-86.4-76.1-136.1-105.4C529.5,728.6,476,706,418.8,690c-57.2-16-116.6-24-178.1-24
		c-64.5,0-127.1,9.1-187.9,27.4c-60.7,18.3-117.4,44-169.9,77.3c-52.5,33.2-99.9,73.5-142.1,120.7
		c-42.2,47.2-77.1,100.1-104.6,158.6h220.5v96h-384V762h96v206.2c33.5-61,74.4-116.1,122.6-165.4c48.3-49.3,101.4-91.1,159.4-125.6
		c58-34.5,120-61,186-79.5C102.6,579.2,170.6,570,240.6,570z"/>
</g>
</svg>
