<?xml version="1.0" encoding="utf-8"?>
<!-- Generator: Adobe Illustrator 22.1.0, SVG Export Plug-In . SVG Version: 6.00 Build 0)  -->
<svg version="1.1"
	 id="Layer_1" xmlns:cc="http://creativecommons.org/ns#" xmlns:dc="http://purl.org/dc/elements/1.1/" xmlns:rdf="http://www.w3.org/1999/02/22-rdf-syntax-ns#"
	 xmlns="http://www.w3.org/2000/svg" xmlns:xlink="http://www.w3.org/1999/xlink" x="0px" y="0px" viewBox="0 0 1536 1536"
	 enable-background="new 0 0 1536 1536" xml:space="preserve">
<g transform="translate(349.1 -138.81)">
	<path fill="#7F7F7F" d="M418.9,138.8c70.5,0,138.5,9.1,204,27.4c65.5,18.2,126.6,44.1,183.4,77.6c56.8,33.5,108.5,73.6,155.3,120.4
		c46.8,46.8,86.9,98.5,120.4,155.3c33.5,56.8,59.4,117.9,77.6,183.4c18.2,65.5,27.4,133.5,27.4,204s-9.1,138.5-27.4,204
		c-18.2,65.5-44.1,126.6-77.6,183.4c-33.5,56.8-73.6,108.5-120.4,155.3c-46.8,46.8-98.5,86.9-155.3,120.4
		c-56.7,33.5-117.9,59.4-183.4,77.6c-65.5,18.2-133.5,27.4-204,27.4c-57,0-112.9-6.3-167.6-18.8c-54.8-12.5-106.9-30.4-156.4-53.6
		s-96.2-51.6-140.3-85.1c-44-33.5-83.8-71.1-119.3-112.9c-35.5-41.8-66.6-87.2-93.4-136.5c-26.8-49.3-47.6-101.4-62.6-156.4
		l92.3-25.5c20,72.5,50.9,139,92.6,199.5c41.8,60.5,91.1,112.5,148.1,156s120.2,77.3,189.8,101.3c69.5,24,141.8,36,216.8,36
		c61.5,0,120.9-8,178.1-24s110.8-38.6,160.5-67.9c49.7-29.3,95.1-64.4,136.1-105.4c41-41,76.1-86.4,105.4-136.1
		c29.3-49.8,51.9-103.1,67.9-160.1c16-57,24-116.5,24-178.5c0-61.5-8-120.9-24-178.1c-16-57.3-38.6-110.8-67.9-160.5
		c-29.3-49.8-64.4-95.1-105.4-136.1s-86.4-76.1-136.1-105.4c-49.8-29.3-103.3-51.9-160.5-67.9c-57.3-16-116.6-24-178.1-24
		c-64.5,0-127.1,9.1-187.9,27.4c-60.8,18.2-117.4,44-169.9,77.3S-38.7,412.9-81,460.2c-42.3,47.3-77.1,100.1-104.6,158.6H34.9v96
		h-384v-384h96v206.3c33.5-61,74.4-116.1,122.6-165.4c48.3-49.3,101.4-91.1,159.4-125.6c58-34.5,120-61,186-79.5
		S348.9,138.8,418.9,138.8L418.9,138.8z"/>
	<g transform="matrix(3.7795 0 0 3.7795 -6146.6 4965)">
		<path fill="#7F7F7F" d="M1792.2-1012.6h-97.7v-20.3c6.8-5.8,13.6-11.6,20.3-17.4c6.8-5.8,13.2-11.6,19.1-17.3
			c12.4-12,20.9-21.5,25.5-28.6c4.6-7.1,6.9-14.8,6.9-23c0-7.5-2.5-13.3-7.5-17.5c-4.9-4.3-11.8-6.4-20.6-6.4
			c-5.9,0-12.2,1-19.1,3.1c-6.8,2.1-13.5,5.2-20.1,9.5h-1v-20.3c4.6-2.3,10.7-4.3,18.3-6.2c7.7-1.9,15.1-2.8,22.3-2.8
			c14.8,0,26.4,3.6,34.8,10.8c8.4,7.1,12.6,16.8,12.6,29c0,5.5-0.7,10.6-2.1,15.4c-1.4,4.7-3.4,9.2-6.1,13.5
			c-2.5,4-5.5,7.9-8.9,11.8c-3.4,3.9-7.5,8.2-12.3,12.9c-6.9,6.8-14,13.4-21.4,19.8c-7.4,6.3-14.2,12.2-20.6,17.6h77.6
			L1792.2-1012.6z"/>
	</g>
</g>
</svg>
