<?xml version="1.0" encoding="utf-8"?>
<!-- Generator: Adobe Illustrator 22.1.0, SVG Export Plug-In . SVG Version: 6.00 Build 0)  -->
<svg version="1.1"
	 id="svg849" inkscape:version="1.1.2 (b8e25be833, 2022-02-05)" sodipodi:docname="Settings.svg" xmlns:inkscape="http://www.inkscape.org/namespaces/inkscape" xmlns:sodipodi="http://sodipodi.sourceforge.net/DTD/sodipodi-0.dtd" xmlns:svg="http://www.w3.org/2000/svg"
	 xmlns="http://www.w3.org/2000/svg" xmlns:xlink="http://www.w3.org/1999/xlink" x="0px" y="0px" viewBox="0 0 2048 2048"
	 enable-background="new 0 0 2048 2048" xml:space="preserve">
<sodipodi:namedview  bordercolor="#666666" borderopacity="1.0" id="namedview851" inkscape:current-layer="svg849" inkscape:cx="1021.9271" inkscape:cy="1024" inkscape:pagecheckerboard="true" inkscape:pageopacity="0.0" inkscape:pageshadow="2" inkscape:window-height="745" inkscape:window-maximized="1" inkscape:window-width="1366" inkscape:window-x="-8" inkscape:window-y="-8" inkscape:zoom="0.24121094" pagecolor="#ffffff" showgrid="false">
	</sodipodi:namedview>
<path id="path847" fill="#FFFFFF" d="M1644.3,994.6c0,4.9,0.1,9.8,0.4,14.7c0.3,4.9,0.4,9.8,0.4,14.7c0,4.9-0.1,9.8-0.4,14.7
	c-0.3,4.9-0.4,9.8-0.4,14.7L1856,1185l-129.9,313l-242.7-55.6c-13.1,14.2-26.7,27.8-40.9,40.9l55.6,242.7L1185,1856l-131.6-211.7
	c-4.9,0-9.8,0.1-14.7,0.4c-4.9,0.3-9.8,0.4-14.7,0.4c-4.9,0-9.8-0.1-14.7-0.4c-4.9-0.3-9.8-0.4-14.7-0.4L863,1856l-313-129.9
	l55.6-242.7c-14.2-13.1-27.8-26.7-40.9-40.9L321.9,1498L192,1185l211.7-131.6c0-4.9-0.1-9.8-0.4-14.7s-0.4-9.8-0.4-14.7
	c0-4.9,0.1-9.8,0.4-14.7s0.4-9.8,0.4-14.7L192,863l129.9-313l242.7,55.6c13.1-14.2,26.7-27.8,40.9-40.9L550,321.9L863,192
	l131.6,211.7c4.9,0,9.8-0.1,14.7-0.4c4.9-0.3,9.8-0.4,14.7-0.4s9.8,0.1,14.7,0.4s9.8,0.4,14.7,0.4L1185,192l313,129.9l-55.6,242.7
	c14.2,13.1,27.8,26.7,40.9,40.9l242.7-55.6L1856,863L1644.3,994.6z M1548.7,1100.8c1.1-13.1,2.2-26,3.3-38.8
	c1.1-12.8,1.6-25.7,1.6-38.8c0-12.5-0.5-25.3-1.6-38.4s-2.2-25.9-3.3-38.4l192.9-120.1l-70.3-170l-221.5,51.5
	c-16.9-20.7-34.2-39.8-51.9-57.2c-17.7-17.4-36.9-34.9-57.6-52.3l51.5-221.5l-170-70.3l-121,192.9c-12.5-1.1-25.3-2.2-38.4-3.3
	c-13.1-1.1-25.9-1.6-38.4-1.6c-13.1,0-26,0.5-38.8,1.6c-12.8,1.1-25.7,2.2-38.8,3.3L826.2,306.4l-170,70.3l51.5,221.5
	c-20.7,16.9-39.8,34.2-57.2,51.9s-34.9,36.9-52.3,57.6l-221.5-51.5l-70.3,170l192.9,121c-1.1,13.1-2.2,26-3.3,38.8
	c-1.1,12.8-1.6,25.7-1.6,38.8c0,12.5,0.5,25.3,1.6,38.4c1.1,13.1,2.2,25.9,3.3,38.4l-192.9,120.1l70.3,170l221.5-51.5
	c16.9,20.7,34.2,39.8,51.9,57.2s36.9,34.9,57.6,52.3l-51.5,221.5l170,70.3l121-192.9c12.5,1.1,25.3,2.2,38.4,3.3
	c13.1,1.1,25.9,1.6,38.4,1.6c13.1,0,26-0.5,38.8-1.6s25.7-2.2,38.8-3.3l120.1,192.9l170-70.3l-51.5-221.5
	c20.7-16.9,39.8-34.2,57.2-51.9c17.4-17.7,34.9-36.9,52.3-57.6l221.5,51.5l70.3-170L1548.7,1100.8z M1024,716.7
	c42.5,0,82.4,8,119.7,24.1c37.3,16.1,69.9,38,97.7,65.8s49.7,60.3,65.8,97.7c16.1,37.3,24.1,77.2,24.1,119.7s-8,82.4-24.1,119.7
	c-16.1,37.3-38,69.9-65.8,97.7s-60.3,49.7-97.7,65.8c-37.3,16.1-77.2,24.1-119.7,24.1s-82.4-8-119.7-24.1
	c-37.3-16.1-69.9-38-97.7-65.8s-49.7-60.3-65.8-97.7c-16.1-37.3-24.1-77.2-24.1-119.7s8-82.4,24.1-119.7
	c16.1-37.3,38-69.9,65.8-97.7s60.3-49.7,97.7-65.8C941.6,724.7,981.5,716.7,1024,716.7z M1024,1239.8c30,0,58-5.6,84.2-16.8
	c26.2-11.2,49-26.6,68.7-46.2s35-42.5,46.2-68.7c11.2-26.2,16.8-54.2,16.8-84.2s-5.6-58-16.8-84.2c-11.2-26.2-26.6-49-46.2-68.7
	s-42.5-35-68.7-46.2c-26.2-11.2-54.2-16.8-84.2-16.8s-58,5.6-84.2,16.8c-26.2,11.2-49,26.6-68.7,46.2s-35,42.5-46.2,68.7
	c-11.2,26.2-16.8,54.2-16.8,84.2s5.6,58,16.8,84.2c11.2,26.2,26.6,49,46.2,68.7s42.5,35,68.7,46.2
	C966,1234.2,994,1239.8,1024,1239.8z"/>
</svg>
